<svg width="114" height="32" viewBox="0 0 114 32" fill="none" xmlns="http://www.w3.org/2000/svg">
    <path d="M10 12.666H8v2.667h2v2h2.667v-2h2v-2.667h-2v-2H10v2zM19.252 10.7l1.415 1.414L22.08 10.7l1.886 1.886L22.552 14l1.415 1.414L22.08 17.3l-1.414-1.414-1.415 1.414-1.885-1.886L18.78 14l-1.414-1.414 1.885-1.886z" fill="#FF0"/>
    <path fill-rule="evenodd" clip-rule="evenodd" d="M17.333 5.333V2.666h-2.666v2.667h-12V28h6.727l4.8-5.334h3.612l4.8 5.334h6.727V5.333h-12zm-12 20V8h21.334v17.333h-2.873L18.994 20h-5.988l-4.8 5.333H5.333z" fill="#FF0"/>
    <path d="M39.254 23.2c-.447 0-.86-.113-1.236-.338a2.648 2.648 0 0 1-.883-.889 2.406 2.406 0 0 1-.335-1.244V12.87c0-.45.112-.86.335-1.227.224-.379.518-.681.883-.906a2.364 2.364 0 0 1 1.236-.338h7.785c.448 0 .86.112 1.236.338.377.225.677.527.9.906.224.368.336.777.336 1.227v.996h-2.348v-.89a.17.17 0 0 0-.07-.142.22.22 0 0 0-.16-.07h-7.59a.22.22 0 0 0-.16.07.193.193 0 0 0-.053.143v7.644c0 .06.018.113.053.16.047.036.1.053.16.053h7.59a.257.257 0 0 0 .16-.053c.047-.047.07-.1.07-.16v-2.311h-2.878v-2.364h5.226v4.782c0 .45-.112.865-.335 1.244a2.595 2.595 0 0 1-.9.89 2.364 2.364 0 0 1-1.237.337h-7.785zM54.783 23.2c-.447 0-.859-.113-1.236-.338a2.648 2.648 0 0 1-.882-.889 2.412 2.412 0 0 1-.318-1.226V16.87h8.086v-1.44a.17.17 0 0 0-.071-.142.167.167 0 0 0-.141-.071h-7.874v-2.33h7.962c.447 0 .853.113 1.218.339.377.225.671.521.883.889.224.367.335.776.335 1.226V23.2h-7.962zm.088-2.329h5.562v-1.902H54.66v1.689c0 .059.017.112.053.16.047.035.1.053.158.053zM65.155 23.2V12.889h12.693c.46 0 .871.112 1.236.338.365.225.653.521.865.889.224.367.336.776.336 1.226V23.2H77.99V15.43a.17.17 0 0 0-.071-.142.219.219 0 0 0-.159-.071h-3.654a.219.219 0 0 0-.16.07.193.193 0 0 0-.052.143V23.2h-2.33V15.43a.17.17 0 0 0-.071-.142.168.168 0 0 0-.141-.071H67.68a.219.219 0 0 0-.16.07.193.193 0 0 0-.052.143V23.2h-2.313zM85.276 23.2c-.447 0-.853-.113-1.218-.338a2.647 2.647 0 0 1-.883-.889 2.313 2.313 0 0 1-.335-1.226v-5.405c0-.45.112-.86.335-1.226.224-.368.518-.664.883-.89.365-.225.771-.337 1.218-.337h5.526c.447 0 .853.112 1.218.338.377.225.671.521.883.889.224.367.335.776.335 1.226v3.876h-8.085v1.44c0 .059.017.112.053.16.047.035.1.053.159.053h7.874V23.2h-7.963zm-.123-6.08h5.773V15.43a.17.17 0 0 0-.07-.142.167.167 0 0 0-.142-.071h-5.35a.219.219 0 0 0-.158.07.193.193 0 0 0-.053.143v1.689zM95.868 23.2V10.4h2.312v12.8h-2.312zM100.889 23.2V10.4h10.239c.448 0 .86.112 1.236.338.377.225.677.527.901.906.223.368.335.777.335 1.227v7.858c0 .45-.112.865-.335 1.244a2.598 2.598 0 0 1-.901.89 2.361 2.361 0 0 1-1.236.337h-10.239zm2.524-2.364h7.609a.257.257 0 0 0 .159-.054.222.222 0 0 0 .071-.16v-7.644a.17.17 0 0 0-.071-.143.219.219 0 0 0-.159-.07h-7.609a.218.218 0 0 0-.158.07.19.19 0 0 0-.053.143v7.644c0 .06.017.113.053.16.047.036.1.053.158.053z" fill="#fff"/>
</svg>
